# xmcd
#
# Track frame offsets:
#	150
#	16103
#	38265
#	54675
#	71198
#	86910
#	101070
#	119055
#	136380
#	156142
#	172470
#	188295
#	205110
#	218528
#	234751
#
# Disc length: 3366 seconds
#
# Revision: 1
# Processed by: cddbd v1.5.1PL2 Copyright (c) Steve Scherf et al.
# Submitted via: audiograbber 1.83.01
#
DISCID=cb0d240f
DTITLE=Music Maestro - MM6425
DYEAR=1900
DGENRE=Karaoke
TTITLE0=Jackson, Alan - Monday Morning Church
TTITLE1=McGraw, Tim - Back When
TTITLE2=Paisley, Brad - Mud On The Tires
TTITLE3=McEntire, Reba - He Gets That From Me
TTITLE4=Lawrence, Tracy - Sawdust On Her Halo
TTITLE5=Chesnutt, Mark - I'm A Saint
TTITLE6=Byrd, Tracy - Revenge Of A Middle Aged Woman
TTITLE7=Lamberi, Miranda - Me And Charlie Talking
TTITLE8=Big and Rich - Holy Water
TTITLE9=Bates, Jeff - Long Slow Kisses
TTITLE10=O'Neal, Jamie - Trying To Find Atlantis
TTITLE11=Michaels, Brett and Jessica Andrews - All I Ever Needed
TTITLE12=Fairchild, Shelly - You Don't Lie Here Anymore
TTITLE13=Griggs, Andy - If Heaven
TTITLE14=Womack, Lee Ann - I Hate Myself In The Morning
EXTD=
EXTT0=
EXTT1=
EXTT2=
EXTT3=
EXTT4=
EXTT5=
EXTT6=
EXTT7=
EXTT8=
EXTT9=
EXTT10=
EXTT11=
EXTT12=
EXTT13=
EXTT14=
PLAYORDER=
